<?xml version="1.0" encoding="utf-8"?>
<!-- Generator: Adobe Illustrator 20.0.0, SVG Export Plug-In . SVG Version: 6.00 Build 0)  -->
<svg version="1.1" id="Layer_1" xmlns="http://www.w3.org/2000/svg" xmlns:xlink="http://www.w3.org/1999/xlink" x="0px" y="0px"
	 viewBox="0 0 575 110" style="enable-background:new 0 0 575 110;" xml:space="preserve">
<style type="text/css">
	.st0{fill:#333E48;}
	.st1{fill:#FF9900;}
</style>
<title>logos/amazon_pay/fullcolor/positive/logo-amazonpay-primary-fullcolor-positive</title>
<desc>Created with Sketch.</desc>
<g id="Logos">
	<g id="logos_x2F_amazon_x5F_pay_x2F_fullcolor_x2F_positive_x2F_logo-amazonpay-primary-fullcolor-positive">
		<path id="Fill-1" class="st0" d="M423.9,9.9c-5.6,0-10.9,1.8-15.9,5.4v33c5,3.8,10.3,5.7,15.6,5.7c10.9,0,16.3-7.3,16.3-22
			C440,17.3,434.6,9.9,423.9,9.9z M407.2,8.4c3-2.6,6.2-4.6,9.6-5.9c3.4-1.3,6.9-2,10.4-2c3.8,0,7.2,0.7,10.3,2.1
			c3.1,1.4,5.7,3.5,7.8,6.2c2.1,2.7,3.8,5.9,4.9,9.8c1.1,3.8,1.7,8.2,1.7,13c0,4.9-0.6,9.3-1.8,13.3c-1.2,4-2.9,7.3-5.2,10.1
			c-2.2,2.8-4.9,4.9-8.1,6.5c-3.2,1.5-6.7,2.3-10.5,2.3c-7.1,0-13.2-2.3-18.4-7v27.7c0,1.6-0.8,2.4-2.4,2.4h-7
			c-1.6,0-2.4-0.8-2.4-2.4V4.6c0-1.6,0.8-2.4,2.4-2.4h5.2c1.6,0,2.5,0.8,2.7,2.4L407.2,8.4L407.2,8.4z"/>
		<path id="Fill-2" class="st0" d="M481.5,54.9c2.6,0,5.3-0.5,8.2-1.5c2.8-1,5.6-2.5,8.2-4.5V36.8c-2-0.5-4-0.8-6.2-1.1
			c-2.2-0.3-4.3-0.4-6.3-0.4c-8.9,0-13.4,3.4-13.4,10.3c0,3,0.8,5.3,2.5,6.9C476.1,54.1,478.5,54.9,481.5,54.9z M467.7,12.5
			c-0.2,0.1-0.5,0.2-0.9,0.3c-0.4,0.1-0.7,0.2-1,0.2c-1,0-1.5-0.7-1.5-2.1V7.7c0-1.1,0.2-1.9,0.5-2.3c0.3-0.4,0.9-0.8,1.9-1.2
			c2.5-1.1,5.6-2,9.4-2.7c3.7-0.7,7.4-1,11.1-1c7.5,0,13,1.5,16.6,4.6c3.6,3.1,5.3,7.9,5.3,14.3v40.5c0,1.6-0.8,2.4-2.4,2.4h-5.1
			c-1.5,0-2.4-0.8-2.6-2.2l-0.6-3.9c-2.8,2.4-6,4.3-9.4,5.7s-6.9,2-10.2,2c-5.7,0-10.2-1.6-13.5-4.8c-3.3-3.2-5-7.5-5-12.9
			c0-5.8,2.1-10.4,6.2-13.8c4.1-3.4,9.6-5.2,16.6-5.2c4.4,0,9.4,0.7,14.9,2v-7.8c0-4.3-0.9-7.3-2.8-9c-1.9-1.7-5.2-2.6-9.9-2.6
			C479.6,9.8,473.8,10.7,467.7,12.5L467.7,12.5z"/>
		<path id="Fill-3" class="st0" d="M547.5,72.8c-2.1,5.4-4.6,9.4-7.4,11.7c-2.8,2.4-6.5,3.6-11,3.6c-2.5,0-4.8-0.3-6.8-0.8
			c-0.9-0.2-1.5-0.6-1.9-1.1c-0.4-0.5-0.6-1.3-0.6-2.4v-3.1c0-1.5,0.6-2.2,1.8-2.2c0.4,0,1,0.1,1.8,0.2c0.8,0.2,1.9,0.2,3.2,0.2
			c3,0,5.3-0.7,7-2.1c1.7-1.4,3.2-4,4.5-7.8l2.2-6L517.5,6.5c-0.6-1.3-0.8-2.3-0.8-2.8c0-0.9,0.6-1.4,1.7-1.4h7.1
			c1.3,0,2.1,0.2,2.6,0.6c0.5,0.4,0.9,1.3,1.4,2.6l16.6,46l16-46c0.5-1.3,0.9-2.2,1.4-2.6c0.5-0.4,1.3-0.6,2.6-0.6h6.6
			c1.1,0,1.7,0.5,1.7,1.4c0,0.6-0.3,1.5-0.8,2.8L547.5,72.8"/>
		<path id="Fill-4" class="st1" d="M226.3,86c-21.2,15.7-52,24-78.4,24c-37.1,0-70.5-13.7-95.8-36.5c-2-1.8-0.2-4.2,2.2-2.9
			c27.3,15.9,61,25.4,95.9,25.4c23.5,0,49.3-4.9,73.1-15C226.8,79.6,229.9,83.4,226.3,86"/>
		<path id="Fill-5" class="st1" d="M235.2,75.9c-2.7-3.5-17.9-1.6-24.8-0.8c-2.1,0.2-2.4-1.6-0.5-2.9c12.1-8.5,32-6.1,34.3-3.2
			c2.3,2.9-0.6,22.8-12,32.3c-1.8,1.5-3.4,0.7-2.6-1.2C232.2,93.7,237.9,79.4,235.2,75.9"/>
		<path id="Fill-6" class="st0" d="M211,11.5V3.2c0-1.3,1-2.1,2.1-2.1l37.1,0c1.2,0,2.1,0.9,2.1,2.1v7.1c0,1.2-1,2.7-2.8,5.2
			l-19.2,27.5c7.1-0.2,14.7,0.9,21.2,4.5c1.5,0.8,1.9,2,2,3.2v8.8c0,1.2-1.3,2.6-2.7,1.9c-11.4-6-26.6-6.6-39.2,0.1
			c-1.3,0.7-2.6-0.7-2.6-1.9v-8.4c0-1.3,0-3.6,1.4-5.7l22.3-32l-19.4,0C212,13.5,211,12.7,211,11.5"/>
		<path id="Fill-7" class="st0" d="M75.5,63.2H64.2c-1.1-0.1-1.9-0.9-2-1.9l0-58c0-1.2,1-2.1,2.2-2.1l10.5,0c1.1,0.1,2,0.9,2.1,1.9
			v7.6h0.2C79.9,3.4,85.1,0,92.1,0c7.1,0,11.5,3.4,14.7,10.7c2.7-7.3,9-10.7,15.6-10.7c4.7,0,9.9,2,13.1,6.3
			c3.6,4.9,2.8,12,2.8,18.2l0,36.6c0,1.2-1,2.1-2.2,2.1h-11.3c-1.1-0.1-2-1-2-2.1l0-30.7c0-2.4,0.2-8.5-0.3-10.9
			c-0.8-3.9-3.4-5-6.6-5c-2.7,0-5.6,1.8-6.8,4.8c-1.2,2.9-1.1,7.8-1.1,11.1v30.7c0,1.2-1,2.1-2.2,2.1H94.5c-1.1-0.1-2-1-2-2.1
			l0-30.7c0-6.5,1.1-16-7-16c-8.1,0-7.8,9.3-7.8,16l0,30.7C77.7,62.3,76.7,63.2,75.5,63.2"/>
		<path id="Fill-8" class="st0" d="M284.4,11.8c-8.3,0-8.9,11.3-8.9,18.4c0,7.1-0.1,22.2,8.8,22.2c8.8,0,9.2-12.2,9.2-19.6
			c0-4.9-0.2-10.7-1.7-15.4C290.6,13.4,288,11.8,284.4,11.8z M284.3,0c16.8,0,25.8,14.4,25.8,32.7c0,17.7-10,31.7-25.8,31.7
			c-16.5,0-25.4-14.4-25.4-32.3C258.9,14,268,0,284.3,0L284.3,0z"/>
		<path id="Fill-9" class="st0" d="M331.9,63.2h-11.3c-1.1-0.1-2-1-2-2.1l0-58c0.1-1.1,1-1.9,2.2-1.9l10.5,0c1,0.1,1.8,0.7,2,1.6
			v8.9h0.2C336.7,3.8,341.1,0,348.9,0c5.1,0,10,1.8,13.2,6.8c3,4.6,3,12.4,3,18.1v36.5c-0.1,1-1,1.8-2.2,1.8h-11.3
			c-1-0.1-1.9-0.8-2-1.8V29.9c0-6.3,0.7-15.6-7.1-15.6c-2.7,0-5.3,1.8-6.5,4.6c-1.6,3.5-1.8,7.1-1.8,11v31.2
			C334.1,62.3,333.1,63.2,331.9,63.2"/>
		<path class="st0" d="M201.5,53.1c-2.1-2.9-4.3-5.2-4.3-10.5V25.1c0-7.5,0.5-14.3-5-19.4c-4.3-4.2-11.5-5.6-17-5.6
			c-10.7,0-22.7,4-25.3,17.3c-0.3,1.4,0.8,2.2,1.7,2.4l11,1.2c1-0.1,1.8-1.1,2-2.1c0.9-4.6,4.8-6.8,9.1-6.8c2.3,0,5,0.9,6.3,2.9
			c1.6,2.3,1.4,5.5,1.4,8.2v1.5c-6.6,0.7-15.1,1.2-21.2,3.9c-7.1,3.1-12,9.3-12,18.5c0,11.7,7.4,17.6,16.9,17.6
			c8,0,12.4-1.9,18.6-8.2c2.1,3,2.7,4.4,6.5,7.5c0.8,0.5,1.9,0.4,2.7-0.3l0,0c2.3-2,6.4-5.6,8.7-7.5
			C202.4,55.4,202.2,54.2,201.5,53.1z M179.3,48.1c-1.8,3.2-4.6,5.1-7.8,5.1c-4.3,0-6.9-3.3-6.9-8.2c0-9.6,8.6-11.4,16.8-11.4v2.4
			C181.4,40.5,181.5,44.1,179.3,48.1z"/>
		<path class="st0" d="M53.4,53.1c-2.1-2.9-4.3-5.2-4.3-10.5V25.1c0-7.5,0.5-14.3-5-19.4C39.8,1.5,32.7,0,27.2,0
			C16.4,0,4.4,4,1.9,17.3c-0.3,1.4,0.8,2.2,1.7,2.4l10.9,1.2c1-0.1,1.8-1.1,2-2.1c0.9-4.6,4.8-6.8,9.1-6.8c2.3,0,5,0.9,6.3,2.9
			c1.6,2.3,1.4,5.5,1.4,8.2v1.5c-6.5,0.7-15.1,1.2-21.2,3.9C5,31.5,0,37.8,0,47c0,11.7,7.4,17.6,16.9,17.6c8,0,12.4-1.9,18.6-8.2
			c2,3,2.7,4.4,6.5,7.5c0.8,0.5,1.9,0.4,2.7-0.3l0,0c2.3-2,6.4-5.6,8.7-7.5C54.3,55.4,54.1,54.2,53.4,53.1z M31.2,48.1
			c-1.8,3.2-4.7,5.1-7.8,5.1c-4.3,0-6.9-3.3-6.9-8.2c0-9.6,8.6-11.4,16.8-11.4v2.4C33.3,40.5,33.4,44.1,31.2,48.1z"/>
	</g>
</g>
</svg>
